<?xml version="1.0" encoding="UTF-8" standalone="no"?>
<!-- Created with Inkscape (http://www.inkscape.org/) -->

<svg
   xmlns:dc="http://purl.org/dc/elements/1.1/"
   xmlns:cc="http://creativecommons.org/ns#"
   xmlns:rdf="http://www.w3.org/1999/02/22-rdf-syntax-ns#"
   xmlns:svg="http://www.w3.org/2000/svg"
   xmlns="http://www.w3.org/2000/svg"
   xmlns:sodipodi="http://sodipodi.sourceforge.net/DTD/sodipodi-0.dtd"
   xmlns:inkscape="http://www.inkscape.org/namespaces/inkscape"
   width="744.09448819"
   height="1052.3622047"
   id="svg2"
   version="1.1"
   inkscape:version="0.48.5 r10040"
   sodipodi:docname="multigrid.svg">
  <defs
     id="defs4" />
  <sodipodi:namedview
     id="base"
     pagecolor="#ffffff"
     bordercolor="#666666"
     borderopacity="1.0"
     inkscape:pageopacity="0.0"
     inkscape:pageshadow="2"
     inkscape:zoom="1.3179204"
     inkscape:cx="252.92933"
     inkscape:cy="748.57143"
     inkscape:document-units="px"
     inkscape:current-layer="layer1"
     showgrid="false"
     inkscape:window-width="1920"
     inkscape:window-height="1025"
     inkscape:window-x="-2"
     inkscape:window-y="-3"
     inkscape:window-maximized="1" />
  <metadata
     id="metadata7">
    <rdf:RDF>
      <cc:Work
         rdf:about="">
        <dc:format>image/svg+xml</dc:format>
        <dc:type
           rdf:resource="http://purl.org/dc/dcmitype/StillImage" />
        <dc:title />
      </cc:Work>
    </rdf:RDF>
  </metadata>
  <g
     inkscape:label="Layer 1"
     inkscape:groupmode="layer"
     id="layer1">
    <path
       style="fill:none;stroke:#000000;stroke-width:1px;stroke-linecap:butt;stroke-linejoin:miter;stroke-opacity:1"
       d="M 50.078899,208.60862 527.34598,390.7137"
       id="path2985"
       inkscape:connector-curvature="0" />
    <path
       style="fill:none;stroke:#000000;stroke-width:1px;stroke-linecap:butt;stroke-linejoin:miter;stroke-opacity:1"
       d="M 156.18601,101.57824 651.6636,257.8851"
       id="path2985-5"
       inkscape:connector-curvature="0"
       sodipodi:nodetypes="cc" />
    <path
       style="fill:none;stroke:#000000;stroke-width:1px;stroke-linecap:butt;stroke-linejoin:miter;stroke-opacity:1"
       d="M 55.390297,232.13052 282.26288,120.59116"
       id="path3016"
       inkscape:connector-curvature="0" />
    <path
       style="fill:none;stroke:#000000;stroke-width:1px;stroke-linecap:butt;stroke-linejoin:miter;stroke-opacity:1"
       d="M 239.17307,310.70732 457.69917,190.82148"
       id="path3016-2"
       inkscape:connector-curvature="0"
       sodipodi:nodetypes="cc" />
    <path
       style="fill:none;stroke:#000000;stroke-width:1px;stroke-linecap:butt;stroke-linejoin:miter;stroke-opacity:1"
       d="M 463.19691,389.26633 663.5125,254.96384"
       id="path3016-2-0"
       inkscape:connector-curvature="0"
       sodipodi:nodetypes="cc" />
    <g
       id="g3926"
       transform="matrix(0.99244846,0,0,0.99244846,7.0130083,0.82908664)">
      <path
         sodipodi:nodetypes="cc"
         inkscape:connector-curvature="0"
         id="path2985-5-5"
         d="m 430.68794,375.13708 220.80242,81.18851"
         style="fill:none;stroke:#000000;stroke-width:1px;stroke-linecap:butt;stroke-linejoin:miter;stroke-opacity:1" />
      <path
         sodipodi:nodetypes="cc"
         inkscape:connector-curvature="0"
         id="path3016-6"
         d="M 303.95804,521.34724 520.96659,398.42631"
         style="fill:none;stroke:#000000;stroke-width:1px;stroke-linecap:butt;stroke-linejoin:miter;stroke-opacity:1" />
      <path
         sodipodi:nodetypes="cc"
         inkscape:connector-curvature="0"
         id="path3016-2-2"
         d="M 238.99983,495.48993 457.52593,375.60409"
         style="fill:none;stroke:#000000;stroke-width:1px;stroke-linecap:butt;stroke-linejoin:miter;stroke-opacity:1" />
      <path
         sodipodi:nodetypes="cc"
         inkscape:connector-curvature="0"
         id="path3016-2-0-6"
         d="M 463.02367,574.04894 663.33926,439.74645"
         style="fill:none;stroke:#000000;stroke-width:1px;stroke-linecap:butt;stroke-linejoin:miter;stroke-opacity:1" />
      <path
         sodipodi:nodetypes="cc"
         inkscape:connector-curvature="0"
         id="path3016-6-2"
         d="M 382.80007,548.15872 594.49723,421.44394"
         style="fill:none;stroke:#000000;stroke-width:1px;stroke-linecap:butt;stroke-linejoin:miter;stroke-opacity:1" />
      <path
         sodipodi:nodetypes="cc"
         inkscape:connector-curvature="0"
         id="path2985-5-5-6"
         d="m 385.83515,412.33869 215.49102,84.22359"
         style="fill:none;stroke:#000000;stroke-width:1px;stroke-linecap:butt;stroke-linejoin:miter;stroke-opacity:1" />
      <path
         sodipodi:nodetypes="cc"
         inkscape:connector-curvature="0"
         id="path2985-5-5-6-0"
         d="m 322.47776,446.20708 215.49102,91.05253"
         style="fill:none;stroke:#000000;stroke-width:1px;stroke-linecap:butt;stroke-linejoin:miter;stroke-opacity:1" />
      <path
         sodipodi:nodetypes="cc"
         inkscape:connector-curvature="0"
         id="path2985-5-5-6-0-1"
         d="m 266.32869,483.2838 207.14454,91.8113"
         style="fill:none;stroke:#000000;stroke-width:1px;stroke-linecap:butt;stroke-linejoin:miter;stroke-opacity:1" />
    </g>
    <path
       style="fill:none;stroke:#000000;stroke-width:1;stroke-linecap:butt;stroke-linejoin:miter;stroke-opacity:1;stroke-miterlimit:4;stroke-dasharray:8,4;stroke-dashoffset:0"
       d="m 449.95132,196.46828 0,182.10508"
       id="path3156"
       inkscape:connector-curvature="0" />
    <path
       style="fill:none;stroke:#000000;stroke-width:1;stroke-linecap:butt;stroke-linejoin:miter;stroke-miterlimit:4;stroke-opacity:1;stroke-dasharray:8, 4;stroke-dashoffset:0"
       d="m 271.64009,293.591 0,182.10508"
       id="path3156-0"
       inkscape:connector-curvature="0" />
    <path
       style="fill:none;stroke:#000000;stroke-width:1;stroke-linecap:butt;stroke-linejoin:miter;stroke-miterlimit:4;stroke-opacity:1;stroke-dasharray:8, 4;stroke-dashoffset:0"
       d="M 656.33708,259.44629 644.95552,450.65663"
       id="path3156-4"
       inkscape:connector-curvature="0"
       sodipodi:nodetypes="cc" />
    <path
       style="fill:none;stroke:#000000;stroke-width:1;stroke-linecap:butt;stroke-linejoin:miter;stroke-miterlimit:4;stroke-opacity:1;stroke-dasharray:8, 4;stroke-dashoffset:0"
       d="m 485.99294,373.26196 -16.69296,195.0042"
       id="path3156-4-3"
       inkscape:connector-curvature="0"
       sodipodi:nodetypes="cc" />
    <path
       sodipodi:type="arc"
       style="fill:#666666;fill-opacity:1;stroke:#666666;stroke-width:1;stroke-linecap:butt;stroke-miterlimit:4;stroke-opacity:1;stroke-dasharray:8, 4;stroke-dashoffset:0"
       id="path3990"
       sodipodi:cx="275.43393"
       sodipodi:cy="291.69406"
       sodipodi:rx="15.175424"
       sodipodi:ry="10.243411"
       d="m 290.60935,291.69406 a 15.175424,10.243411 0 1 1 -30.35084,0 15.175424,10.243411 0 1 1 30.35084,0 z"
       transform="translate(381.66191,-32.627161)" />
    <path
       sodipodi:type="arc"
       style="fill:#666666;fill-opacity:1;stroke:#666666;stroke-width:1;stroke-linecap:butt;stroke-miterlimit:4;stroke-opacity:1;stroke-dasharray:8, 4;stroke-dashoffset:0"
       id="path3990-9"
       sodipodi:cx="275.43393"
       sodipodi:cy="291.69406"
       sodipodi:rx="15.175424"
       sodipodi:ry="10.243411"
       d="m 290.60935,291.69406 a 15.175424,10.243411 0 1 1 -30.35084,0 15.175424,10.243411 0 1 1 30.35084,0 z"
       transform="matrix(0.68218005,0,0,0.68218005,260.86769,180.72365)" />
    <path
       sodipodi:type="arc"
       style="fill:#666666;fill-opacity:1;stroke:#666666;stroke-width:1;stroke-linecap:butt;stroke-miterlimit:4;stroke-opacity:1;stroke-dasharray:8, 4;stroke-dashoffset:0"
       id="path3990-9-0"
       sodipodi:cx="275.43393"
       sodipodi:cy="291.69406"
       sodipodi:rx="15.175424"
       sodipodi:ry="10.243411"
       d="m 290.60935,291.69406 a 15.175424,10.243411 0 1 1 -30.35084,0 15.175424,10.243411 0 1 1 30.35084,0 z"
       transform="matrix(0.68218005,0,0,0.68218005,205.14795,211.45388)" />
    <path
       sodipodi:type="arc"
       style="fill:#666666;fill-opacity:1;stroke:#666666;stroke-width:1;stroke-linecap:butt;stroke-miterlimit:4;stroke-opacity:1;stroke-dasharray:8, 4;stroke-dashoffset:0"
       id="path3990-9-0-8"
       sodipodi:cx="275.43393"
       sodipodi:cy="291.69406"
       sodipodi:rx="15.175424"
       sodipodi:ry="10.243411"
       d="m 290.60935,291.69406 a 15.175424,10.243411 0 1 1 -30.35084,0 15.175424,10.243411 0 1 1 30.35084,0 z"
       transform="matrix(0.68218005,0,0,0.68218005,140.65239,245.59858)" />
    <path
       sodipodi:type="arc"
       style="fill:#666666;fill-opacity:1;stroke:#666666;stroke-width:1;stroke-linecap:butt;stroke-miterlimit:4;stroke-opacity:1;stroke-dasharray:8, 4;stroke-dashoffset:0"
       id="path3990-9-0-4"
       sodipodi:cx="275.43393"
       sodipodi:cy="291.69406"
       sodipodi:rx="15.175424"
       sodipodi:ry="10.243411"
       d="m 290.60935,291.69406 a 15.175424,10.243411 0 1 1 -30.35084,0 15.175424,10.243411 0 1 1 30.35084,0 z"
       transform="matrix(0.68218005,0,0,0.68218005,83.744557,279.74329)" />
    <path
       sodipodi:type="arc"
       style="fill:#e6e6e6;fill-opacity:1;stroke:#666666;stroke-width:1;stroke-linecap:butt;stroke-miterlimit:4;stroke-opacity:1;stroke-dasharray:8, 4;stroke-dashoffset:0"
       id="path3990-9-0-7"
       sodipodi:cx="275.43393"
       sodipodi:cy="291.69406"
       sodipodi:rx="15.175424"
       sodipodi:ry="10.243411"
       d="m 290.60935,291.69406 a 15.175424,10.243411 0 1 1 -30.35084,0 15.175424,10.243411 0 1 1 30.35084,0 z"
       transform="matrix(0.68218005,0,0,0.68218005,324.27503,203.1074)" />
    <path
       sodipodi:type="arc"
       style="fill:#e6e6e6;fill-opacity:1;stroke:#666666;stroke-width:1;stroke-linecap:butt;stroke-miterlimit:4;stroke-opacity:1;stroke-dasharray:8, 4;stroke-dashoffset:0"
       id="path3990-9-0-7-2"
       sodipodi:cx="275.43393"
       sodipodi:cy="291.69406"
       sodipodi:rx="15.175424"
       sodipodi:ry="10.243411"
       d="m 290.60935,291.69406 a 15.175424,10.243411 0 1 1 -30.35084,0 15.175424,10.243411 0 1 1 30.35084,0 z"
       transform="matrix(0.68218005,0,0,0.68218005,268.88473,235.73457)" />
    <path
       sodipodi:type="arc"
       style="fill:#e6e6e6;fill-opacity:1;stroke:#666666;stroke-width:1;stroke-linecap:butt;stroke-miterlimit:4;stroke-opacity:1;stroke-dasharray:8, 4;stroke-dashoffset:0"
       id="path3990-9-0-7-5"
       sodipodi:cx="275.43393"
       sodipodi:cy="291.69406"
       sodipodi:rx="15.175424"
       sodipodi:ry="10.243411"
       d="m 290.60935,291.69406 a 15.175424,10.243411 0 1 1 -30.35084,0 15.175424,10.243411 0 1 1 30.35084,0 z"
       transform="matrix(0.68218005,0,0,0.68218005,204.38918,272.15558)" />
    <path
       sodipodi:type="arc"
       style="fill:#666666;fill-opacity:1;stroke:#666666;stroke-width:1;stroke-linecap:butt;stroke-miterlimit:4;stroke-opacity:1;stroke-dasharray:8, 4;stroke-dashoffset:0"
       id="path3990-9-0-7-9"
       sodipodi:cx="275.43393"
       sodipodi:cy="291.69406"
       sodipodi:rx="15.175424"
       sodipodi:ry="10.243411"
       d="m 290.60935,291.69406 a 15.175424,10.243411 0 1 1 -30.35084,0 15.175424,10.243411 0 1 1 30.35084,0 z"
       transform="matrix(0.68218005,0,0,0.68218005,142.16994,307.05905)" />
    <path
       sodipodi:type="arc"
       style="fill:#e6e6e6;fill-opacity:1;stroke:#666666;stroke-width:1;stroke-linecap:butt;stroke-miterlimit:4;stroke-opacity:1;stroke-dasharray:8, 4;stroke-dashoffset:0"
       id="path3990-9-0-7-4"
       sodipodi:cx="275.43393"
       sodipodi:cy="291.69406"
       sodipodi:rx="15.175424"
       sodipodi:ry="10.243411"
       d="m 290.60935,291.69406 a 15.175424,10.243411 0 1 1 -30.35084,0 15.175424,10.243411 0 1 1 30.35084,0 z"
       transform="matrix(0.68218005,0,0,0.68218005,392.56443,230.42316)" />
    <path
       sodipodi:type="arc"
       style="fill:#e6e6e6;fill-opacity:1;stroke:#666666;stroke-width:1;stroke-linecap:butt;stroke-miterlimit:4;stroke-opacity:1;stroke-dasharray:8, 4;stroke-dashoffset:0"
       id="path3990-9-0-7-8"
       sodipodi:cx="275.43393"
       sodipodi:cy="291.69406"
       sodipodi:rx="15.175424"
       sodipodi:ry="10.243411"
       d="m 290.60935,291.69406 a 15.175424,10.243411 0 1 1 -30.35084,0 15.175424,10.243411 0 1 1 30.35084,0 z"
       transform="matrix(0.68218005,0,0,0.68218005,337.17413,260.77401)" />
    <path
       sodipodi:type="arc"
       style="fill:#e6e6e6;fill-opacity:1;stroke:#666666;stroke-width:1;stroke-linecap:butt;stroke-miterlimit:4;stroke-opacity:1;stroke-dasharray:8, 4;stroke-dashoffset:0"
       id="path3990-9-0-7-41"
       sodipodi:cx="275.43393"
       sodipodi:cy="291.69406"
       sodipodi:rx="15.175424"
       sodipodi:ry="10.243411"
       d="m 290.60935,291.69406 a 15.175424,10.243411 0 1 1 -30.35084,0 15.175424,10.243411 0 1 1 30.35084,0 z"
       transform="matrix(0.68218005,0,0,0.68218005,273.43736,300.23012)" />
    <path
       sodipodi:type="arc"
       style="fill:#666666;fill-opacity:1;stroke:#666666;stroke-width:1;stroke-linecap:butt;stroke-miterlimit:4;stroke-opacity:1;stroke-dasharray:8, 4;stroke-dashoffset:0"
       id="path3990-9-0-7-7"
       sodipodi:cx="275.43393"
       sodipodi:cy="291.69406"
       sodipodi:rx="15.175424"
       sodipodi:ry="10.243411"
       d="m 290.60935,291.69406 a 15.175424,10.243411 0 1 1 -30.35084,0 15.175424,10.243411 0 1 1 30.35084,0 z"
       transform="matrix(0.68218005,0,0,0.68218005,209.70057,337.4099)" />
    <path
       sodipodi:type="arc"
       style="fill:#666666;fill-opacity:1;stroke:#666666;stroke-width:1;stroke-linecap:butt;stroke-miterlimit:4;stroke-opacity:1;stroke-dasharray:8, 4;stroke-dashoffset:0"
       id="path3990-9-0-7-92"
       sodipodi:cx="275.43393"
       sodipodi:cy="291.69406"
       sodipodi:rx="15.175424"
       sodipodi:ry="10.243411"
       d="m 290.60935,291.69406 a 15.175424,10.243411 0 1 1 -30.35084,0 15.175424,10.243411 0 1 1 30.35084,0 z"
       transform="matrix(0.68218005,0,0,0.68218005,281.78384,369.27829)" />
    <path
       sodipodi:type="arc"
       style="fill:#e6e6e6;fill-opacity:1;stroke:#666666;stroke-width:1;stroke-linecap:butt;stroke-miterlimit:4;stroke-opacity:1;stroke-dasharray:8, 4;stroke-dashoffset:0"
       id="path3990-9-0-7-24"
       sodipodi:cx="275.43393"
       sodipodi:cy="291.69406"
       sodipodi:rx="15.175424"
       sodipodi:ry="10.243411"
       d="m 290.60935,291.69406 a 15.175424,10.243411 0 1 1 -30.35084,0 15.175424,10.243411 0 1 1 30.35084,0 z"
       transform="matrix(0.68218005,0,0,0.68218005,340.20922,329.82219)" />
    <path
       sodipodi:type="arc"
       style="fill:#e6e6e6;fill-opacity:1;stroke:#666666;stroke-width:1;stroke-linecap:butt;stroke-miterlimit:4;stroke-opacity:1;stroke-dasharray:8, 4;stroke-dashoffset:0"
       id="path3990-9-0-7-6"
       sodipodi:cx="275.43393"
       sodipodi:cy="291.69406"
       sodipodi:rx="15.175424"
       sodipodi:ry="10.243411"
       d="m 290.60935,291.69406 a 15.175424,10.243411 0 1 1 -30.35084,0 15.175424,10.243411 0 1 1 30.35084,0 z"
       transform="matrix(0.68218005,0,0,0.68218005,400.91092,287.331)" />
    <rect
       style="fill:#e6e6e6;fill-opacity:1;stroke:#666666;stroke-width:1;stroke-linecap:butt;stroke-miterlimit:4;stroke-opacity:1;stroke-dasharray:8, 4;stroke-dashoffset:0"
       id="rect4141"
       width="23.326633"
       height="14.416653"
       x="635.0213"
       y="442.5163" />
  </g>
</svg>
